<svg xmlns="http://www.w3.org/2000/svg" viewBox="0 0 120 120">
  <defs>
    <!-- 芯片渐变 -->
    <linearGradient id="chipGrad" x1="0%" y1="0%" x2="100%" y2="100%">
      <stop offset="0%" stop-color="#1d4ed8" />
      <stop offset="100%" stop-color="#3b82f6" />
    </linearGradient>
    
    <!-- 电路渐变 -->
    <linearGradient id="circuitGrad" x1="0%" y1="0%" x2="100%" y2="100%">
      <stop offset="0%" stop-color="#fbbf24" />
      <stop offset="100%" stop-color="#f59e0b" />
    </linearGradient>
    
    <!-- 白色背景光晕渐变 -->
    <radialGradient id="whiteGlow" cx="50%" cy="50%" r="50%">
      <stop offset="0%" stop-color="#ffffff" stop-opacity="0" />
      <stop offset="40%" stop-color="#ffffff" stop-opacity="0.2" />
      <stop offset="70%" stop-color="#ffffff" stop-opacity="0.4" />
      <stop offset="100%" stop-color="#ffffff" stop-opacity="0" />
    </radialGradient>
    
    <!-- 蓝色光晕渐变 -->
    <radialGradient id="blueGlow" cx="50%" cy="50%" r="50%">
      <stop offset="0%" stop-color="#3b82f6" stop-opacity="0.6" />
      <stop offset="70%" stop-color="#3b82f6" stop-opacity="0.3" />
      <stop offset="100%" stop-color="#3b82f6" stop-opacity="0" />
    </radialGradient>
    
    <!-- 强烈光晕滤镜 -->
    <filter id="strongGlow" x="-40%" y="-40%" width="180%" height="180%">
      <feGaussianBlur stdDeviation="8" result="blur1"/>
      <feGaussianBlur stdDeviation="5" result="blur2"/>
      <feMerge>
        <feMergeNode in="blur1"/>
        <feMergeNode in="blur2"/>
        <feMergeNode in="SourceGraphic"/>
      </feMerge>
    </filter>
    
    <!-- 外发光滤镜 -->
    <filter id="outerGlow" x="-50%" y="-50%" width="200%" height="200%">
      <feGaussianBlur in="SourceAlpha" stdDeviation="6" result="blur"/>
      <feFlood flood-color="#3b82f6" flood-opacity="0.3" result="color"/>
      <feComposite in="color" in2="blur" operator="in" result="glow"/>
      <feMerge>
        <feMergeNode in="glow"/>
        <feMergeNode in="SourceGraphic"/>
      </feMerge>
    </filter>
    
    <!-- 文字阴影滤镜 -->
    <filter id="textShadow" x="-20%" y="-20%" width="140%" height="140%">
      <feDropShadow dx="0" dy="0" stdDeviation="2" flood-color="#1e3a8a" flood-opacity="0.7"/>
    </filter>
    
    <!-- 文字渐变 -->
    <linearGradient id="textGrad" x1="0%" y1="0%" x2="100%" y2="100%">
      <stop offset="0%" stop-color="#ffffff" />
      <stop offset="100%" stop-color="#dbeafe" />
    </linearGradient>
    
    <!-- 光束滤镜 -->
    <filter id="beamGlow">
      <feGaussianBlur stdDeviation="1" result="blur"/>
      <feMerge>
        <feMergeNode in="blur"/>
        <feMergeNode in="blur"/>
        <feMergeNode in="SourceGraphic"/>
      </feMerge>
    </filter>
  </defs>
  
  <!-- 白色背景光晕 -->
  <circle cx="60" cy="60" r="55" fill="url(#whiteGlow)" opacity="0.8"/>
  
  <!-- 蓝色外发光 -->
  <circle cx="60" cy="60" r="52" fill="url(#blueGlow)" filter="url(#strongGlow)"/>
  
  <!-- 多重光晕圈 -->
  <circle cx="60" cy="60" r="50" fill="none" stroke="#3b82f6" stroke-width="1" opacity="0.3" filter="url(#strongGlow)"/>
  <circle cx="60" cy="60" r="46" fill="none" stroke="#60a5fa" stroke-width="1" opacity="0.4" filter="url(#strongGlow)"/>
  
  <!-- 芯片主体 - 应用外发光 -->
  <rect x="25" y="25" width="70" height="70" rx="8" fill="url(#chipGrad)" stroke="#93c5fd" stroke-width="2" filter="url(#outerGlow)"/>
  
  <!-- 芯片引脚 -->
  <g opacity="0.9" filter="url(#strongGlow)">
    <rect x="20" y="30" width="5" height="10" rx="2" fill="#3b82f6"/>
    <rect x="20" y="50" width="5" height="10" rx="2" fill="#3b82f6"/>
    <rect x="20" y="70" width="5" height="10" rx="2" fill="#3b82f6"/>
    
    <rect x="95" y="30" width="5" height="10" rx="2" fill="#3b82f6"/>
    <rect x="95" y="50" width="5" height="10" rx="2" fill="#3b82f6"/>
    <rect x="95" y="70" width="5" height="10" rx="2" fill="#3b82f6"/>
    
    <rect x="30" y="20" width="10" height="5" rx="2" fill="#3b82f6"/>
    <rect x="50" y="20" width="10" height="5" rx="2" fill="#3b82f6"/>
    <rect x="70" y="20" width="10" height="5" rx="2" fill="#3b82f6"/>
    
    <rect x="30" y="95" width="10" height="5" rx="2" fill="#3b82f6"/>
    <rect x="50" y="95" width="10" height="5" rx="2" fill="#3b82f6"/>
    <rect x="70" y="95" width="10" height="5" rx="2" fill="#3b82f6"/>
  </g>
  
  <!-- 内部电路 - 金色渐变，增强发光 -->
  <g opacity="0.95" filter="url(#strongGlow)">
    <path d="M40,40 L80,40 M40,50 L80,50 M40,60 L80,60 M40,70 L80,70" 
          stroke="url(#circuitGrad)" stroke-width="2.5" stroke-linecap="round"/>
    <path d="M40,40 L40,80 M50,40 L50,80 M60,40 L60,80 M70,40 L70,80" 
          stroke="url(#circuitGrad)" stroke-width="2.5" stroke-linecap="round"/>
  </g>
  
  <!-- 电路连接点 - 增强发光 -->
  <g filter="url(#strongGlow)">
    <circle cx="40" cy="40" r="3" fill="#fbbf24"/>
    <circle cx="40" cy="50" r="3" fill="#fbbf24"/>
    <circle cx="40" cy="60" r="3" fill="#fbbf24"/>
    <circle cx="40" cy="70" r="3" fill="#fbbf24"/>
    <circle cx="50" cy="40" r="3" fill="#fbbf24"/>
    <circle cx="50" cy="50" r="3" fill="#fbbf24"/>
    <circle cx="50" cy="60" r="3" fill="#fbbf24"/>
    <circle cx="50" cy="70" r="3" fill="#fbbf24"/>
    <circle cx="60" cy="40" r="3" fill="#fbbf24"/>
    <circle cx="60" cy="50" r="3" fill="#fbbf24"/>
    <circle cx="60" cy="60" r="3" fill="#fbbf24"/>
    <circle cx="60" cy="70" r="3" fill="#fbbf24"/>
    <circle cx="70" cy="40" r="3" fill="#fbbf24"/>
    <circle cx="70" cy="50" r="3" fill="#fbbf24"/>
    <circle cx="70" cy="60" r="3" fill="#fbbf24"/>
    <circle cx="70" cy="70" r="3" fill="#fbbf24"/>
  </g>
  
  <!-- 中心标识 -->
  <text x="60" y="65" text-anchor="middle" fill="url(#textGrad)" font-family="Arial, sans-serif" font-size="24" font-weight="bold" filter="url(#textShadow)">HRNR</text>
  
  <!-- 动态光点效果 - 增强发光 -->
  <g filter="url(#strongGlow)">
    <!-- 左上角光点 -->
    <circle cx="35" cy="35" r="2" fill="#ffffff">
      <animate attributeName="opacity" values="0.3;1;0.3" dur="1.5s" repeatCount="indefinite"/>
      <animate attributeName="r" values="2;3;2" dur="1.5s" repeatCount="indefinite"/>
    </circle>
    
    <!-- 右上角光点 -->
    <circle cx="85" cy="35" r="2" fill="#ffffff">
      <animate attributeName="opacity" values="0.3;1;0.3" dur="1.5s" repeatCount="indefinite" begin="0.5s"/>
      <animate attributeName="r" values="2;3;2" dur="1.5s" repeatCount="indefinite" begin="0.5s"/>
    </circle>
    
    <!-- 左下角光点 -->
    <circle cx="35" cy="85" r="2" fill="#ffffff">
      <animate attributeName="opacity" values="0.3;1;0.3" dur="1.5s" repeatCount="indefinite" begin="1s"/>
      <animate attributeName="r" values="2;3;2" dur="1.5s" repeatCount="indefinite" begin="1s"/>
    </circle>
    
    <!-- 右下角光点 -->
    <circle cx="85" cy="85" r="2" fill="#ffffff">
      <animate attributeName="opacity" values="0.3;1;0.3" dur="1.5s" repeatCount="indefinite" begin="1.5s"/>
      <animate attributeName="r" values="2;3;2" dur="1.5s" repeatCount="indefinite" begin="1.5s"/>
    </circle>
  </g>
  
  <!-- 光束效果 - 增强发光 -->
  <g opacity="0.5" filter="url(#beamGlow)">
    <line x1="60" y1="25" x2="60" y2="15" stroke="#60a5fa" stroke-width="2"/>
    <line x1="60" y1="95" x2="60" y2="105" stroke="#60a5fa" stroke-width="2"/>
    <line x1="25" y1="60" x2="15" y2="60" stroke="#60a5fa" stroke-width="2"/>
    <line x1="95" y1="60" x2="105" y2="60" stroke="#60a5fa" stroke-width="2"/>
  </g>
  
  <!-- 额外发光粒子 -->
  <g opacity="0.6" filter="url(#strongGlow)">
    <circle cx="45" cy="30" r="1" fill="#93c5fd">
      <animate attributeName="opacity" values="0.2;0.8;0.2" dur="2s" repeatCount="indefinite"/>
    </circle>
    <circle cx="75" cy="30" r="1" fill="#93c5fd">
      <animate attributeName="opacity" values="0.2;0.8;0.2" dur="2s" repeatCount="indefinite" begin="0.3s"/>
    </circle>
    <circle cx="45" cy="90" r="1" fill="#93c5fd">
      <animate attributeName="opacity" values="0.2;0.8;0.2" dur="2s" repeatCount="indefinite" begin="0.6s"/>
    </circle>
    <circle cx="75" cy="90" r="1" fill="#93c5fd">
      <animate attributeName="opacity" values="0.2;0.8;0.2" dur="2s" repeatCount="indefinite" begin="0.9s"/>
    </circle>
  </g>
</svg>
